<?xml version="1.0" encoding="UTF-8" standalone="no" ?>
<!DOCTYPE svg PUBLIC "-//W3C//DTD SVG 1.1//EN" "http://www.w3.org/Graphics/SVG/1.1/DTD/svg11.dtd">
<svg xmlns="http://www.w3.org/2000/svg" xmlns:xlink="http://www.w3.org/1999/xlink" version="1.1" width="1080" height="1080" viewBox="0 0 1080 1080" xml:space="preserve">
<desc>Created with Fabric.js 5.2.4</desc>
<defs>
</defs>
<g transform="matrix(1 0 0 1 540 540)" id="ab0b4f92-8888-469b-95e2-bd61ec5b45e2"  >
<rect style="stroke: none; stroke-width: 1; stroke-dasharray: none; stroke-linecap: butt; stroke-dashoffset: 0; stroke-linejoin: miter; stroke-miterlimit: 4; fill: rgb(255,255,255); fill-rule: nonzero; opacity: 1; visibility: hidden;" vector-effect="non-scaling-stroke"  x="-540" y="-540" rx="0" ry="0" width="1080" height="1080" />
</g>
<g transform="matrix(1 0 0 1 540 540)" id="c003bf51-b159-4fb7-a70a-2b4a6ab51bd2"  >
</g>
<g transform="matrix(2.4 0 0 2.4 540 540)" id="svg"  >
<path style="stroke: none; stroke-width: 1; stroke-dasharray: none; stroke-linecap: butt; stroke-dashoffset: 0; stroke-linejoin: miter; stroke-miterlimit: 4; fill: rgb(0,0,0); fill-rule: nonzero; opacity: 1;"  transform=" translate(-500.09, -536.73)" d="M 336 309.415 L 336 314.829 L 343.75 315.479 C 381.487 318.642 400.015 332.123 413.067 365.913 C 417.844 378.28 437.536 436.225 439.409 443.425 L 440.69 448.35 L 443.345 444.443 C 444.805 442.294 446 439.687 446 438.649 C 446 437.611 447.603 434.122 449.563 430.896 C 453.863 423.818 477.879 400.676 484.786 396.955 C 490.14 394.07 490.054 394.94 486.329 381.5 C 474.566 339.06 465.404 320.778 451.115 311.236 C 440.7 304.281 438.077 304 383.553 304 L 336 304 L 336 309.415 M 567 309 L 567 314 L 571.542 314 C 578.035 314 590.304 316.717 596.817 319.598 C 604.281 322.899 608.133 325.976 611.878 331.629 C 614.987 336.323 616.312 340.138 613.549 336.441 C 612.687 335.287 613.161 337.746 614.718 342.5 C 617.017 349.519 617.37 352.401 617.594 366 C 617.765 376.405 617.39 383.637 616.453 388 C 613.905 399.862 613.904 399.879 615.496 396.5 C 623.003 380.571 600.271 450.487 581.183 502.037 C 566.172 542.577 550.021 581.013 537.484 606.031 C 506.066 668.73 465.031 717.473 427.5 736.674 C 408.66 746.313 393.12 749.683 372.061 748.697 C 330.562 746.754 300.644 725.296 291.93 691.226 C 289.53 681.844 289.375 667.212 291.584 658.644 C 295.155 644.795 305.321 631.796 317.732 625.209 C 325.673 620.995 326.662 619.543 320.932 620.511 C 298.518 624.298 281.402 641.544 276.573 665.208 C 272.894 683.235 276.597 702.557 287.137 720.335 C 301.202 744.056 325.396 760.179 358.162 767.668 C 369.475 770.253 393.562 770.007 406.734 767.172 C 434.738 761.143 459.867 747.4 482.679 725.636 C 488.365 720.211 496.018 712.111 499.686 707.636 C 507.682 697.879 513.129 692 514.171 692 C 514.592 692 516.13 695.938 517.589 700.75 C 519.048 705.563 521.529 712.356 523.102 715.846 C 529.379 729.775 542.104 743.654 554.634 750.239 C 567.727 757.119 569.029 757.267 622.5 757.995 L 670.5 758.649 L 622 758.512 C 568.819 758.362 568.908 758.371 555.25 752.014 C 547.686 748.494 546.936 748.92 554.209 752.606 C 569.452 760.33 576.474 761.119 628.25 760.925 L 671 760.764 L 671 755.021 L 671 749.279 L 665.75 748.648 C 662.863 748.301 658.7 748.008 656.5 747.996 C 651.043 747.966 635.748 744.683 628.793 742.05 C 620.721 738.993 609.091 731.128 601.672 723.709 C 593.68 715.717 584.396 701.686 579.081 689.568 C 575.002 680.267 565.909 652.901 559.975 632.066 L 556.881 621.204 L 562.321 610.352 C 586.101 562.91 603.75 517.712 635.477 423 C 646.623 389.725 657.099 359.513 658.758 355.863 C 667.414 336.805 681.42 323.489 698 318.554 C 702.837 317.114 720.343 314.022 723.75 314.006 C 724.583 314.002 725 312.33 725 309 L 725 304 L 646 304 L 567 304 L 567 309 M 395.521 340.25 C 398.194 343.413 400.536 346 400.726 346 C 401.731 346 398.635 342.007 394.909 338.5 L 390.66 334.5 L 395.521 340.25 M 486.853 413.022 C 478.935 418.273 464.456 431.078 456.913 439.5 C 440.896 457.385 427.182 480.437 420.615 500.51 C 408.716 536.891 415.882 571.386 440.169 594.628 C 450.666 604.673 463.215 609.966 476.591 609.988 C 484.922 610.002 489.653 608.695 500.44 603.398 C 511.102 598.164 517.758 591.897 522.891 582.261 C 525.434 577.487 526.791 575.655 526.418 577.5 C 524.237 588.281 514.322 600.007 502.661 605.595 C 498.754 607.468 494.756 609 493.778 609 C 492.8 609 492 609.266 492 609.591 C 492 609.917 494.941 619.479 498.537 630.841 C 502.132 642.204 505.21 651.95 505.377 652.5 C 506.131 654.979 522.926 626.921 533.635 605.29 L 545.348 581.632 L 543.55 574.566 C 542.56 570.68 536.395 549.5 529.848 527.5 C 512.971 470.781 508.437 455.502 506.03 447.25 C 504.867 443.263 503.523 440 503.043 440 C 501.385 440 486.882 455.147 481.201 462.813 C 467.271 481.611 461.981 498.246 464.075 516.671 C 464.667 521.88 467.184 531.87 470.658 542.802 C 473.752 552.536 478.379 567.25 480.941 575.5 C 486.303 592.766 485.481 592.08 497.761 589.543 C 507.086 587.616 513.991 584.22 519.91 578.65 C 523.566 575.209 523.964 575.013 522.241 577.5 C 518.607 582.746 511.678 588.779 506 591.64 C 501.327 593.995 499.361 594.393 492.926 594.289 C 470.752 593.93 454.449 584.922 445.673 568.182 C 440.107 557.564 438.693 550.534 439.302 536.5 C 439.928 522.053 441.618 515.225 447.348 504 C 449.734 499.325 455.705 487.625 460.617 478 C 470.233 459.156 473.164 454.445 482.233 443.267 C 488.212 435.896 497.58 427.298 499.138 427.75 C 499.612 427.888 500 427.751 500 427.446 C 500 426.701 494.893 408.563 494.6 408.268 C 494.474 408.141 490.987 410.28 486.853 413.022 M 335.191 592.713 C 333.366 593.062 332.947 593.709 333.191 595.802 C 333.478 598.257 334.019 598.536 340.638 599.639 C 347.376 600.762 358.847 605.076 365.5 608.988 C 372.97 613.381 378.091 615.956 377.519 615.032 C 377.156 614.443 377.54 614.27 378.442 614.616 C 379.293 614.943 379.743 615.607 379.442 616.093 C 379.142 616.579 379.519 616.738 380.28 616.446 C 382.186 615.715 392.747 623.676 398.093 629.874 C 404.075 636.808 409.732 646.358 411.793 653 C 414.43 661.498 414.106 675.651 411.06 684.95 C 408.287 693.42 400.65 705.495 395.253 709.943 C 387.346 716.461 395.836 714.22 405.272 707.298 C 413.91 700.961 422.036 687.133 425.059 673.625 C 427.114 664.443 425.86 648.044 422.326 637.882 C 414.588 615.63 395.493 597.912 374.5 593.504 C 367.911 592.121 341.115 591.582 335.191 592.713 M 527 728 C 527 728.55 527.45 729 528 729 C 528.55 729 529 729.627 529 730.393 C 529 731.159 529.703 732.056 530.563 732.386 C 531.739 732.837 531.599 732.245 529.995 729.993 C 527.754 726.846 527 726.344 527 728 M 536.017 738.46 C 537.758 740.761 543.41 745.901 546.403 747.904 C 548.882 749.564 548.381 749.055 540.517 741.925 C 537.227 738.941 535.202 737.382 536.017 738.46" stroke-linecap="round" />
</g>
</svg>